<svg xmlns="http://www.w3.org/2000/svg" xmlns:xlink="http://www.w3.org/1999/xlink" width="300" zoomAndPan="magnify" viewBox="0 0 224.87999 89.999999" height="120" preserveAspectRatio="xMidYMid meet" version="1.0"><defs><g/><clipPath id="6574ec7abe"><path d="M 0 8.195312 L 59.96875 8.195312 L 59.96875 76.410156 L 0 76.410156 Z M 0 8.195312 " clip-rule="nonzero"/></clipPath><clipPath id="2e8d3097dc"><path d="M 206 32 L 224.761719 32 L 224.761719 66 L 206 66 Z M 206 32 " clip-rule="nonzero"/></clipPath></defs><g clip-path="url(#6574ec7abe)"><path fill="#0080bc" d="M 30.777344 9.320312 C 30.527344 8.941406 30.984375 8.496094 31.359375 8.757812 L 46.925781 19.667969 C 56.734375 26.546875 61.253906 38.824219 58.140625 50.398438 C 57.894531 51.3125 57.632812 52.117188 57.382812 52.789062 C 57.230469 53.207031 56.617188 53.117188 56.585938 52.671875 C 56.324219 48.90625 53.613281 44.597656 51.648438 41.46875 C 51.296875 40.910156 50.96875 40.390625 50.683594 39.917969 C 48.773438 36.753906 34.9375 15.660156 30.777344 9.320312 Z M 10.164062 40.011719 L 28.796875 9.308594 C 29.015625 8.949219 28.625 8.535156 28.253906 8.726562 C 25 10.429688 16.210938 15.347656 9.308594 22.25 C 1.746094 29.8125 7.859375 38.113281 9.5 40.0625 C 9.679688 40.277344 10.019531 40.25 10.164062 40.011719 Z M 28.335938 75.601562 C 28.585938 75.980469 28.128906 76.425781 27.757812 76.164062 L 12.191406 65.25 C 2.378906 58.375 -2.136719 46.09375 0.972656 34.523438 C 1.21875 33.605469 1.484375 32.804688 1.730469 32.132812 C 1.886719 31.714844 2.496094 31.804688 2.527344 32.25 C 2.789062 36.015625 5.5 40.324219 7.464844 43.449219 C 7.816406 44.007812 8.144531 44.527344 8.429688 45.003906 C 10.339844 48.167969 24.175781 69.261719 28.335938 75.601562 Z M 30.316406 75.609375 L 48.949219 44.90625 C 49.097656 44.667969 49.4375 44.640625 49.617188 44.855469 C 51.257812 46.804688 57.367188 55.101562 49.808594 62.667969 C 42.90625 69.566406 34.117188 74.488281 30.859375 76.1875 C 30.492188 76.382812 30.101562 75.964844 30.316406 75.609375 Z M 30.316406 75.609375 " fill-opacity="1" fill-rule="evenodd"/></g><g fill="#0080bc" fill-opacity="1"><g transform="translate(62.466722, 65.856152)"><g><path d="M 12.515625 0 L 3.796875 0 L 3.796875 -46.234375 L 12.515625 -46.234375 Z M 12.515625 0 "/></g></g></g><g fill="#0080bc" fill-opacity="1"><g transform="translate(76.406, 65.856152)"><g><path d="M 18.328125 0.609375 C 13.554688 0.609375 9.671875 -0.851562 6.671875 -3.78125 C 3.671875 -6.71875 2.171875 -10.625 2.171875 -15.5 L 2.171875 -16.34375 C 2.171875 -19.613281 2.800781 -22.535156 4.0625 -25.109375 C 5.320312 -27.691406 7.109375 -29.679688 9.421875 -31.078125 C 11.742188 -32.472656 14.390625 -33.171875 17.359375 -33.171875 C 21.816406 -33.171875 25.320312 -31.765625 27.875 -28.953125 C 30.4375 -26.140625 31.71875 -22.15625 31.71875 -17 L 31.71875 -13.453125 L 10.984375 -13.453125 C 11.265625 -11.328125 12.113281 -9.617188 13.53125 -8.328125 C 14.945312 -7.046875 16.738281 -6.40625 18.90625 -6.40625 C 22.25 -6.40625 24.863281 -7.617188 26.75 -10.046875 L 31.03125 -5.265625 C 29.726562 -3.421875 27.960938 -1.976562 25.734375 -0.9375 C 23.503906 0.09375 21.035156 0.609375 18.328125 0.609375 Z M 17.34375 -26.125 C 15.613281 -26.125 14.210938 -25.539062 13.140625 -24.375 C 12.066406 -23.21875 11.378906 -21.554688 11.078125 -19.390625 L 23.171875 -19.390625 L 23.171875 -20.078125 C 23.128906 -22.003906 22.609375 -23.492188 21.609375 -24.546875 C 20.609375 -25.597656 19.1875 -26.125 17.34375 -26.125 Z M 17.34375 -26.125 "/></g></g></g><g fill="#0080bc" fill-opacity="1"><g transform="translate(107.32087, 65.856152)"><g><path d="M 1.984375 -16.53125 C 1.984375 -21.601562 3.117188 -25.644531 5.390625 -28.65625 C 7.671875 -31.664062 10.789062 -33.171875 14.75 -33.171875 C 17.914062 -33.171875 20.535156 -31.984375 22.609375 -29.609375 L 22.609375 -46.234375 L 31.328125 -46.234375 L 31.328125 0 L 23.46875 0 L 23.0625 -3.46875 C 20.882812 -0.75 18.09375 0.609375 14.6875 0.609375 C 10.851562 0.609375 7.773438 -0.898438 5.453125 -3.921875 C 3.140625 -6.941406 1.984375 -11.144531 1.984375 -16.53125 Z M 10.6875 -15.890625 C 10.6875 -12.835938 11.21875 -10.5 12.28125 -8.875 C 13.34375 -7.25 14.890625 -6.4375 16.921875 -6.4375 C 19.609375 -6.4375 21.503906 -7.570312 22.609375 -9.84375 L 22.609375 -22.6875 C 21.523438 -24.957031 19.644531 -26.09375 16.96875 -26.09375 C 12.78125 -26.09375 10.6875 -22.691406 10.6875 -15.890625 Z M 10.6875 -15.890625 "/></g></g></g><g fill="#0080bc" fill-opacity="1"><g transform="translate(139.650373, 65.856152)"><g><path d="M 2.078125 -16.53125 C 2.078125 -21.519531 3.265625 -25.539062 5.640625 -28.59375 C 8.015625 -31.644531 11.222656 -33.171875 15.265625 -33.171875 C 18.828125 -33.171875 21.601562 -31.945312 23.59375 -29.5 L 23.953125 -32.5625 L 31.84375 -32.5625 L 31.84375 -1.078125 C 31.84375 1.765625 31.195312 4.238281 29.90625 6.34375 C 28.613281 8.457031 26.789062 10.066406 24.4375 11.171875 C 22.09375 12.273438 19.34375 12.828125 16.1875 12.828125 C 13.800781 12.828125 11.472656 12.347656 9.203125 11.390625 C 6.941406 10.441406 5.226562 9.210938 4.0625 7.703125 L 7.921875 2.40625 C 10.085938 4.832031 12.710938 6.046875 15.796875 6.046875 C 18.109375 6.046875 19.90625 5.425781 21.1875 4.1875 C 22.46875 2.957031 23.109375 1.210938 23.109375 -1.046875 L 23.109375 -2.796875 C 21.109375 -0.523438 18.472656 0.609375 15.203125 0.609375 C 11.285156 0.609375 8.117188 -0.921875 5.703125 -3.984375 C 3.285156 -7.046875 2.078125 -11.101562 2.078125 -16.15625 Z M 10.78125 -15.890625 C 10.78125 -12.941406 11.367188 -10.628906 12.546875 -8.953125 C 13.734375 -7.273438 15.359375 -6.4375 17.421875 -6.4375 C 20.078125 -6.4375 21.972656 -7.429688 23.109375 -9.421875 L 23.109375 -23.109375 C 21.953125 -25.097656 20.078125 -26.09375 17.484375 -26.09375 C 15.398438 -26.09375 13.757812 -25.238281 12.5625 -23.53125 C 11.375 -21.832031 10.78125 -19.285156 10.78125 -15.890625 Z M 10.78125 -15.890625 "/></g></g></g><g fill="#0080bc" fill-opacity="1"><g transform="translate(172.431354, 65.856152)"><g><path d="M 18.328125 0.609375 C 13.554688 0.609375 9.671875 -0.851562 6.671875 -3.78125 C 3.671875 -6.71875 2.171875 -10.625 2.171875 -15.5 L 2.171875 -16.34375 C 2.171875 -19.613281 2.800781 -22.535156 4.0625 -25.109375 C 5.320312 -27.691406 7.109375 -29.679688 9.421875 -31.078125 C 11.742188 -32.472656 14.390625 -33.171875 17.359375 -33.171875 C 21.816406 -33.171875 25.320312 -31.765625 27.875 -28.953125 C 30.4375 -26.140625 31.71875 -22.15625 31.71875 -17 L 31.71875 -13.453125 L 10.984375 -13.453125 C 11.265625 -11.328125 12.113281 -9.617188 13.53125 -8.328125 C 14.945312 -7.046875 16.738281 -6.40625 18.90625 -6.40625 C 22.25 -6.40625 24.863281 -7.617188 26.75 -10.046875 L 31.03125 -5.265625 C 29.726562 -3.421875 27.960938 -1.976562 25.734375 -0.9375 C 23.503906 0.09375 21.035156 0.609375 18.328125 0.609375 Z M 17.34375 -26.125 C 15.613281 -26.125 14.210938 -25.539062 13.140625 -24.375 C 12.066406 -23.21875 11.378906 -21.554688 11.078125 -19.390625 L 23.171875 -19.390625 L 23.171875 -20.078125 C 23.128906 -22.003906 22.609375 -23.492188 21.609375 -24.546875 C 20.609375 -25.597656 19.1875 -26.125 17.34375 -26.125 Z M 17.34375 -26.125 "/></g></g></g><g clip-path="url(#2e8d3097dc)"><g fill="#0080bc" fill-opacity="1"><g transform="translate(203.346232, 65.856152)"><g><path d="M 21.640625 -24.40625 C 20.453125 -24.570312 19.410156 -24.65625 18.515625 -24.65625 C 15.222656 -24.65625 13.066406 -23.539062 12.046875 -21.3125 L 12.046875 0 L 3.34375 0 L 3.34375 -32.5625 L 11.5625 -32.5625 L 11.796875 -28.6875 C 13.546875 -31.675781 15.960938 -33.171875 19.046875 -33.171875 C 20.015625 -33.171875 20.921875 -33.039062 21.765625 -32.78125 Z M 21.640625 -24.40625 "/></g></g></g></g></svg>